<svg width="268" height="60" viewBox="0 0 268 60" fill="none" xmlns="http://www.w3.org/2000/svg">
<path d="M84.2198 51.1089H89.5468V52.0485H85.3164V54.7842H86.9626C88.799 54.7842 90.1149 55.4454 90.1149 57.196C90.1149 59.0082 88.9073 59.838 87.0154 59.838H84.2198V51.1089ZM86.8357 58.9574C88.2996 58.9574 89.0368 58.4193 89.0368 57.2228C89.0368 56.0932 88.2758 55.6354 86.804 55.6354H85.3164V58.9574H86.8357Z" fill="white"/>
<path d="M94.2155 59.8607L94.4428 58.8676C94.5828 58.9211 94.7361 58.9586 94.9924 58.9586C95.5526 58.9586 95.8696 58.7444 96.0995 58.2492L96.2871 57.7941L93.3488 51.1074H94.5115L96.1207 54.9915L96.7733 56.7127H96.8262L97.4365 54.9915L98.9163 51.1074H100.029L97.2067 58.2546C96.776 59.336 96.1577 59.9999 95.0664 59.9999C94.6859 59.9972 94.4533 59.9517 94.2155 59.8607Z" fill="white"/>
<path d="M105.37 55.3264L103.023 51.105H104.233L105.409 53.3401C105.626 53.739 105.811 54.1004 106.08 54.609H106.133C106.366 54.1004 106.535 53.739 106.741 53.3401L107.888 51.105H109.043L106.696 55.3826L109.206 59.8368H107.996L106.733 57.4866C106.506 57.0502 106.273 56.6166 105.996 56.0839H105.943C105.692 56.6166 105.475 57.0529 105.259 57.4866L104.014 59.8368H102.859L105.37 55.3264Z" fill="white"/>
<path d="M114.973 51.1074H116.21L119.125 59.8393H117.962L116.458 54.9621C116.149 53.985 115.872 53.0267 115.594 52.0202H115.542C115.275 53.0321 114.997 53.9877 114.688 54.9621L113.169 59.8393H112.054L114.973 51.1074ZM113.592 56.2924H117.56V57.1785H113.592V56.2924Z" fill="white"/>
<path d="M121.794 59.8821L122.022 58.8595C122.143 58.9024 122.249 58.9291 122.389 58.9291C122.843 58.9291 123.182 58.6588 123.591 56.5896C123.948 54.7693 124.244 53.0294 124.585 51.1074H128.892V59.8393H127.795V52.0497H125.438C125.155 53.6451 124.904 55.1655 124.622 56.7127C124.127 59.3815 123.565 59.9999 122.531 59.9999C122.254 59.9972 122.032 59.9704 121.794 59.8821Z" fill="white"/>
<path d="M135.666 52.047H133.058V51.1074H139.37V52.047H136.762V59.8366H135.666V52.047Z" fill="white"/>
<path d="M143.538 51.1074H148.506V52.047H144.635V54.7827H147.9V55.7223H144.635V58.897H148.638V59.8366H143.538V51.1074Z" fill="white"/>
<path d="M153.084 51.1074H155.547C157.479 51.1074 158.781 51.7659 158.781 53.6772C158.781 55.5162 157.484 56.3727 155.6 56.3727H154.184V59.8366H153.087V51.1074H153.084ZM155.46 55.4733C156.966 55.4733 157.685 54.9192 157.685 53.6772C157.685 52.4191 156.921 52.0068 155.407 52.0068H154.181V55.4733H155.46Z" fill="white"/>
<path d="M162.642 55.4811C162.642 52.6651 164.28 50.9492 166.465 50.9492C167.512 50.9492 168.331 51.4632 168.836 52.0253L168.236 52.748C167.781 52.2582 167.213 51.9236 166.487 51.9236C164.859 51.9236 163.776 53.2754 163.776 55.4516C163.776 57.6466 164.809 59.0225 166.444 59.0225C167.266 59.0225 167.892 58.6612 168.442 58.0428L169.042 58.7388C168.36 59.5392 167.517 59.9996 166.397 59.9996C164.251 59.9969 162.642 58.3159 162.642 55.4811Z" fill="white"/>
<path d="M173.269 51.1074H174.366V54.7934H176.48L179.674 59.8392H178.488L175.838 55.7062H174.363V59.8392H173.267V51.1074H173.269ZM175.729 55.0209L177.058 52.5743C177.772 51.2546 178.224 50.9468 179.001 50.9468C179.164 50.9468 179.347 50.9735 179.474 51.0298L179.289 52.0684C179.18 52.0336 179.056 52.0148 178.977 52.0148C178.599 52.0148 178.369 52.1674 177.851 53.1177L176.694 55.2377L175.729 55.0209Z" fill="white"/>
<path d="M183.512 51.1074H184.598V55.6259C184.598 56.5387 184.513 57.5238 184.458 58.4045H184.511L185.441 56.6137L188.609 51.1074H189.772V59.8393H188.686V55.2699C188.686 54.3571 188.77 53.4256 188.826 52.5422H188.773L187.843 54.3277L184.675 59.8393H183.512V51.1074Z" fill="white"/>
<path d="M194.752 51.1074H199.719V52.047H195.848V54.7827H199.114V55.7223H195.848V58.897H199.852V59.8366H194.752V51.1074Z" fill="white"/>
<path d="M209.306 59.8607L209.533 58.8676C209.673 58.9211 209.827 58.9586 210.083 58.9586C210.643 58.9586 210.96 58.7444 211.19 58.2492L211.378 57.7941L208.439 51.1074H209.602L211.211 54.9915L211.864 56.7127H211.917L212.527 54.9915L214.007 51.1074H215.119L212.297 58.2546C211.867 59.336 211.248 59.9999 210.157 59.9999C209.776 59.9972 209.544 59.9517 209.306 59.8607Z" fill="white"/>
<path d="M218.43 55.4811C218.43 52.6651 220.068 50.9492 222.253 50.9492C223.3 50.9492 224.119 51.4632 224.623 52.0253L224.024 52.748C223.569 52.2582 223.001 51.9236 222.274 51.9236C220.647 51.9236 219.563 53.2754 219.563 55.4516C219.563 57.6466 220.597 59.0225 222.232 59.0225C223.054 59.0225 223.68 58.6612 224.23 58.0428L224.83 58.7388C224.148 59.5392 223.305 59.9996 222.185 59.9996C220.036 59.9969 218.43 58.3159 218.43 55.4811Z" fill="white"/>
<path d="M227.877 59.8821L228.104 58.8595C228.225 58.9024 228.331 58.9291 228.471 58.9291C228.926 58.9291 229.264 58.6588 229.673 56.5896C230.033 54.7693 230.326 53.0294 230.667 51.1074H234.974V59.8393H233.877V52.0497H231.52C231.238 53.6451 230.987 55.1655 230.704 56.7127C230.21 59.3815 229.647 59.9999 228.614 59.9999C228.336 59.9972 228.115 59.9704 227.877 59.8821Z" fill="white"/>
<path d="M239.709 59.8607L239.936 58.8676C240.076 58.9211 240.229 58.9586 240.485 58.9586C241.046 58.9586 241.363 58.7444 241.593 58.2492L241.78 57.7941L238.842 51.1074H240.005L241.614 54.9915L242.266 56.7127H242.319L242.93 54.9915L244.409 51.1074H245.522L242.7 58.2546C242.269 59.336 241.651 59.9999 240.559 59.9999C240.176 59.9972 239.946 59.9517 239.709 59.8607Z" fill="white"/>
<path d="M249.33 51.1074H254.3V52.047H250.426V59.8366H249.33V51.1074Z" fill="white"/>
<path d="M258.495 51.1074H259.581V55.6259C259.581 56.5387 259.497 57.5238 259.441 58.4045H259.494L260.424 56.6137L263.592 51.1074H264.755V59.8393H263.669V55.2699C263.669 54.3571 263.754 53.4256 263.809 52.5422H263.756L262.826 54.3277L259.658 59.8393H258.495V51.1074Z" fill="white"/>
<path d="M83.5029 21.7898H88.4282L91.6677 30.7786C92.0667 31.9725 92.4182 33.2681 92.8172 34.5155H92.9387C93.3377 33.2707 93.6786 31.9725 94.0776 30.7786L97.2167 21.7898H102.142V42.0213H98.0305V34.5958C98.0305 32.6229 98.3951 29.6784 98.6065 27.7217H98.485L96.8467 32.5105L94.0221 40.2626H91.5171L88.6872 32.5105L87.0939 27.7217H86.9723C87.1863 29.6784 87.5483 32.6229 87.5483 34.5958V42.0213H83.4976V21.7898H83.5029Z" fill="white"/>
<path d="M107.44 31.817C107.44 25.2079 111.123 21.4148 116.511 21.4148C121.896 21.4148 125.582 25.232 125.582 31.817C125.582 38.4261 121.899 42.3931 116.511 42.3931C111.123 42.3931 107.44 38.4287 107.44 31.817ZM120.956 31.817C120.956 27.7616 119.235 25.3658 116.511 25.3658C113.787 25.3658 112.067 27.7616 112.067 31.817C112.067 35.8724 113.787 38.4448 116.511 38.4448C119.235 38.4448 120.956 35.875 120.956 31.817Z" fill="white"/>
<path d="M129.932 32.0231C129.932 25.3096 134.313 21.4175 139.359 21.4175C141.941 21.4175 144.021 22.6488 145.365 24.0435L142.985 26.9773C141.983 26.0323 140.905 25.3658 139.46 25.3658C136.72 25.3658 134.558 27.8124 134.558 31.8678C134.558 36.0276 136.469 38.4448 139.389 38.4448C141.029 38.4448 142.319 37.6257 143.297 36.5523L145.677 39.4245C144.018 41.3786 141.812 42.3931 139.227 42.3931C134.159 42.3931 129.932 38.8383 129.932 32.0231Z" fill="white"/>
<path d="M149.297 31.817C149.297 25.2079 152.98 21.4148 158.368 21.4148C163.753 21.4148 167.439 25.232 167.439 31.817C167.439 38.4261 163.756 42.3931 158.368 42.3931C152.98 42.3931 149.297 38.4287 149.297 31.817ZM162.81 31.817C162.81 27.7616 161.09 25.3658 158.366 25.3658C155.641 25.3658 153.921 27.7616 153.921 31.817C153.921 35.8724 155.641 38.4448 158.366 38.4448C161.092 38.4448 162.81 35.875 162.81 31.817Z" fill="white"/>
<path d="M172.732 21.7898H186.364V25.6257H177.248V29.6891H179.998C184.197 29.6891 187.664 31.1507 187.664 35.6022C187.664 40.2305 184.313 42.0213 180.123 42.0213H172.735V21.7898H172.732ZM179.65 38.4932C182.059 38.4932 183.246 37.6072 183.246 35.6638C183.246 33.7659 181.999 33.0646 179.628 33.0646H177.248V38.4932H179.65Z" fill="white"/>
<path d="M189.981 42.0938L190.793 37.9795C191.049 38.0518 191.295 38.1134 191.651 38.1134C192.653 38.1134 193.361 37.6235 194.291 33.279C195.1 29.4966 195.734 25.6795 196.439 21.7874H208.081V42.0189H203.566V25.6232H199.911C199.417 28.4955 198.944 31.0974 198.453 33.7608C197.158 40.5573 195.512 42.3909 192.32 42.3909C191.255 42.3936 190.624 42.332 189.981 42.0938Z" fill="white"/>
<path d="M214.313 21.7898H227.945V25.6257H218.829V29.6891H221.579C225.778 29.6891 229.245 31.1507 229.245 35.6022C229.245 40.2305 225.894 42.0213 221.703 42.0213H214.315V21.7898H214.313ZM221.233 38.4932C223.643 38.4932 224.829 37.6072 224.829 35.6638C224.829 33.7659 223.582 33.0646 221.212 33.0646H218.831V38.4932H221.233Z" fill="white"/>
<path d="M234.159 41.9918L234.97 38.0328C235.327 38.156 235.671 38.271 236.476 38.271C237.348 38.271 238.02 37.998 238.389 37.3395L238.688 36.7292L231.913 21.7898H236.69L239.018 27.6949L240.68 32.5319H240.802L242.393 27.6949L244.504 21.7898H249.03L242.863 37.4305C241.632 40.5089 239.816 42.3934 236.698 42.3934C235.546 42.3934 234.756 42.2301 234.159 41.9918Z" fill="white"/>
<path d="M256.283 31.6087L251.088 21.7874H256.119L257.855 25.6125C258.307 26.5441 258.735 27.5854 259.308 28.8569H259.43C259.892 27.5854 260.31 26.5441 260.709 25.6125L262.294 21.7874H267.111L261.916 31.8228L267.439 42.0188H262.408L260.437 37.8939C259.935 36.8499 259.475 35.8059 258.941 34.5639H258.82C258.347 35.8059 257.897 36.8499 257.446 37.8939L255.575 42.0188H250.758L256.283 31.6087Z" fill="white"/>
<path d="M74.8964 59.96C74.9338 59.9167 74.9648 59.8713 74.9969 59.8248C75.0076 59.8086 75.0204 59.7946 75.0311 59.7783C75.0834 59.6983 75.1283 59.614 75.1657 59.5275C75.1764 59.5026 75.1839 59.4777 75.1935 59.4528C75.2191 59.3836 75.2415 59.3144 75.2576 59.2431C75.264 59.2149 75.2715 59.1857 75.2768 59.1566C75.295 59.0592 75.3057 58.9597 75.3067 58.8603C75.3067 58.8592 75.3067 58.857 75.3067 58.8559V38.1069C75.3067 17.0951 58.4151 0 37.6534 0C16.8917 0 0 17.0951 0 38.1069V58.857C0 58.8592 0 58.8603 0 58.8613C0 58.9608 0.0117532 59.0592 0.0299174 59.1576C0.0352598 59.1868 0.0416716 59.2149 0.049151 59.2441C0.0662467 59.3155 0.0876154 59.3858 0.113259 59.4539C0.122875 59.4788 0.130356 59.5047 0.141041 59.5285C0.178438 59.615 0.223313 59.6994 0.275669 59.7794C0.286354 59.7956 0.299176 59.8097 0.309861 59.8259C0.341916 59.8713 0.373969 59.9178 0.410297 59.9611L74.8964 59.96ZM37.6544 3.34138C56.5965 3.34138 72.0062 18.9377 72.0062 38.1069V57.1863H68.1404V38.1069C68.1404 21.094 54.4638 7.25264 37.6534 7.25264C20.8429 7.25264 7.16632 21.094 7.16632 38.1069V57.1863H3.30268V38.1069C3.30268 18.9377 18.7124 3.34138 37.6544 3.34138ZM61.8075 57.1863V34.7547C61.8075 33.8496 61.0831 33.1165 60.1888 33.1165H48.7229C47.8285 33.1165 47.1041 33.8496 47.1041 34.7547V57.1863H45.0067V22.3451C45.0067 21.44 44.2822 20.7068 43.3879 20.7068H31.921C31.0266 20.7068 30.3022 21.44 30.3022 22.3451V57.1852H28.2048V43.5905C28.2048 42.6854 27.4803 41.9522 26.586 41.9522H15.1201C14.2258 41.9522 13.5014 42.6854 13.5014 43.5905V57.1852H10.469V38.1069C10.469 22.9366 22.6647 10.594 37.6544 10.594C52.6442 10.594 64.8399 22.9366 64.8399 38.1069V57.1863H61.8075ZM58.57 57.1863H50.3405V36.393H58.57V57.1863ZM41.7692 57.1863H33.5397V23.9834H41.7692V57.1863ZM24.9673 57.1863H16.7378V45.2298H24.9673V57.1863Z" fill="white"/>
<path d="M15.0617 57.2842V43.7247C15.0617 43.6736 15.1024 43.6323 15.1517 43.6323H26.34C26.5317 43.6323 26.688 43.792 26.688 43.9886V57.2842" stroke="#41BE06" stroke-width="3" stroke-miterlimit="10"/>
<path d="M48.6188 57.2837V35.0879C48.6188 34.9279 48.7451 34.7983 48.9011 34.7983H59.9627C60.1188 34.7983 60.2451 34.9279 60.2451 35.0879V57.2827" stroke="#41BE06" stroke-width="3" stroke-miterlimit="10"/>
<path d="M31.9728 57.2844V22.6371C31.9728 22.5538 32.04 22.4856 32.122 22.4856H43.2464C43.2955 22.4856 43.3349 22.5256 43.3349 22.5754V57.2834" stroke="#41BE06" stroke-width="3" stroke-miterlimit="10"/>
</svg>
