<svg width="179" height="40" viewBox="0 0 179 40" fill="none" xmlns="http://www.w3.org/2000/svg">
<path d="M56.146 34.0723H59.6973V34.6986H56.877V36.5224H57.9745C59.1987 36.5224 60.076 36.9632 60.076 38.1303C60.076 39.3384 59.271 39.8916 58.0097 39.8916H56.146V34.0723ZM57.8899 39.3045C58.8658 39.3045 59.3573 38.9458 59.3573 38.1481C59.3573 37.3951 58.85 37.0899 57.8688 37.0899H56.877V39.3045H57.8899Z" fill="#313137"/>
<path d="M62.8097 39.9067L62.9612 39.2446C63.0546 39.2803 63.1567 39.3053 63.3276 39.3053C63.7011 39.3053 63.9124 39.1626 64.0657 38.8324L64.1908 38.529L62.2319 34.0713H63.007L64.0798 36.6606L64.5149 37.8081H64.5501L64.957 36.6606L65.9435 34.0713H66.6851L64.8038 38.836C64.5166 39.5569 64.1044 39.9995 63.3769 39.9995C63.1233 39.9977 62.9683 39.9674 62.8097 39.9067Z" fill="#313137"/>
<path d="M70.2457 36.8835L68.6815 34.0693H69.4883L70.2721 35.5594C70.4166 35.8253 70.5399 36.0662 70.7196 36.4053H70.7548C70.9098 36.0662 71.0226 35.8253 71.16 35.5594L71.9245 34.0693H72.6943L71.13 36.921L72.8035 39.8905H71.9967L71.1547 38.3237C71.0032 38.0328 70.8482 37.7437 70.6632 37.3886H70.628C70.4606 37.7437 70.3162 38.0346 70.1717 38.3237L69.3421 39.8905H68.5723L70.2457 36.8835Z" fill="#313137"/>
<path d="M76.6482 34.0708H77.4726L79.4156 39.8919H78.6405L77.6382 36.6405C77.4321 35.9892 77.2471 35.3503 77.0622 34.6793H77.027C76.849 35.3539 76.6641 35.991 76.458 36.6405L75.4451 39.8919H74.7017L76.6482 34.0708ZM75.7269 37.5274H78.3728V38.1181H75.7269V37.5274Z" fill="#313137"/>
<path d="M81.1953 39.921L81.3468 39.2393C81.4278 39.2679 81.4983 39.2857 81.5917 39.2857C81.8946 39.2857 82.1201 39.1055 82.3932 37.726C82.631 36.5125 82.8283 35.3526 83.0555 34.0713H85.9268V39.8924H85.1958V34.6994H83.6245C83.436 35.763 83.2686 36.7766 83.0802 37.8081C82.7508 39.5873 82.3755 39.9995 81.6868 39.9995C81.5018 39.9977 81.3539 39.9799 81.1953 39.921Z" fill="#313137"/>
<path d="M90.4427 34.6977H88.7041V34.0713H92.9124V34.6977H91.1738V39.8906H90.4427V34.6977Z" fill="#313137"/>
<path d="M95.6909 34.0713H99.0026V34.6977H96.422V36.5214H98.5992V37.1478H96.422V39.2643H99.0907V39.8906H95.6909V34.0713Z" fill="#313137"/>
<path d="M102.055 34.0708H103.697C104.985 34.0708 105.853 34.5098 105.853 35.7839C105.853 37.0099 104.988 37.581 103.732 37.581H102.788V39.8902H102.057V34.0708H102.055ZM103.639 36.9814C104.643 36.9814 105.122 36.612 105.122 35.7839C105.122 34.9452 104.613 34.6704 103.604 34.6704H102.786V36.9814H103.639Z" fill="#313137"/>
<path d="M108.427 36.987C108.427 35.1097 109.519 33.9658 110.976 33.9658C111.673 33.9658 112.219 34.3084 112.556 34.6832L112.156 35.165C111.853 34.8385 111.474 34.6154 110.99 34.6154C109.905 34.6154 109.182 35.5166 109.182 36.9674C109.182 38.4307 109.871 39.348 110.962 39.348C111.509 39.348 111.927 39.1071 112.293 38.6948L112.693 39.1588C112.239 39.6924 111.677 39.9993 110.93 39.9993C109.5 39.9975 108.427 38.8769 108.427 36.987Z" fill="#313137"/>
<path d="M115.511 34.0709H116.243V36.5282H117.652L119.781 39.8921H118.991L117.224 37.1368H116.241V39.8921H115.51V34.0709H115.511ZM117.151 36.6799L118.038 35.0489C118.513 34.1691 118.814 33.9639 119.332 33.9639C119.441 33.9639 119.563 33.9817 119.648 34.0192L119.524 34.7116C119.452 34.6884 119.369 34.6759 119.316 34.6759C119.065 34.6759 118.911 34.7776 118.566 35.4111L117.794 36.8245L117.151 36.6799Z" fill="#313137"/>
<path d="M122.34 34.0713H123.064V37.0836C123.064 37.6921 123.007 38.3488 122.97 38.9359H123.006L123.626 37.7421L125.738 34.0713H126.513V39.8924H125.789V36.8462C125.789 36.2377 125.845 35.6167 125.882 35.0278H125.847L125.227 36.2181L123.115 39.8924H122.34V34.0713Z" fill="#313137"/>
<path d="M129.833 34.0713H133.145V34.6977H130.564V36.5214H132.741V37.1478H130.564V39.2643H133.233V39.8906H129.833V34.0713Z" fill="#313137"/>
<path d="M139.536 39.9062L139.687 39.2442C139.781 39.2798 139.883 39.3048 140.054 39.3048C140.427 39.3048 140.638 39.1621 140.792 38.8319L140.917 38.5286L138.958 34.0708H139.733L140.806 36.6602L141.241 37.8076H141.276L141.683 36.6602L142.669 34.0708H143.411L141.53 38.8355C141.243 39.5565 140.83 39.999 140.103 39.999C139.849 39.9972 139.694 39.9669 139.536 39.9062Z" fill="#313137"/>
<path d="M145.618 36.9865C145.618 35.1092 146.71 33.9653 148.167 33.9653C148.865 33.9653 149.411 34.308 149.747 34.6827L149.347 35.1645C149.044 34.838 148.666 34.6149 148.181 34.6149C147.096 34.6149 146.374 35.5161 146.374 36.9669C146.374 38.4302 147.063 39.3475 148.153 39.3475C148.701 39.3475 149.118 39.1066 149.485 38.6943L149.885 39.1583C149.43 39.6919 148.868 39.9988 148.121 39.9988C146.689 39.9971 145.618 38.8764 145.618 36.9865Z" fill="#313137"/>
<path d="M151.916 39.921L152.068 39.2393C152.149 39.2679 152.219 39.2857 152.312 39.2857C152.615 39.2857 152.841 39.1055 153.114 37.726C153.353 36.5125 153.549 35.3526 153.776 34.0713H156.648V39.8924H155.916V34.6994H154.345C154.157 35.763 153.989 36.7766 153.801 37.8081C153.471 39.5873 153.096 39.9995 152.407 39.9995C152.223 39.9977 152.075 39.9799 151.916 39.921Z" fill="#313137"/>
<path d="M159.804 39.9067L159.955 39.2446C160.049 39.2803 160.151 39.3053 160.322 39.3053C160.695 39.3053 160.907 39.1626 161.06 38.8324L161.185 38.529L159.226 34.0713H160.001L161.074 36.6606L161.509 37.8081H161.544L161.951 36.6606L162.938 34.0713H163.679L161.798 38.836C161.511 39.5569 161.099 39.9995 160.371 39.9995C160.116 39.9977 159.962 39.9674 159.804 39.9067Z" fill="#313137"/>
<path d="M166.218 34.0713H169.531V34.6977H166.949V39.8906H166.218V34.0713Z" fill="#313137"/>
<path d="M172.328 34.0708H173.052V37.0831C173.052 37.6916 172.996 38.3483 172.959 38.9354H172.994L173.614 37.7416L175.726 34.0708H176.501V39.8919H175.777V36.8457C175.777 36.2372 175.834 35.6162 175.871 35.0273H175.835L175.215 36.2176L173.103 39.8919H172.328V34.0708Z" fill="#313137"/>
<path d="M55.6676 14.5264H58.9511L61.1107 20.5188C61.3767 21.3147 61.611 22.1784 61.877 23.01H61.958C62.224 22.1802 62.4513 21.3147 62.7173 20.5188L64.81 14.5264H68.0935V28.0139H65.3525V23.0636C65.3525 21.7484 65.5956 19.7854 65.7365 18.4809H65.6555L64.5634 21.6734L62.6803 26.8414H61.0103L59.1237 21.6734L58.0615 18.4809H57.9805C58.1232 19.7854 58.3645 21.7484 58.3645 23.0636V28.0139H55.6641V14.5264H55.6676Z" fill="#313137"/>
<path d="M71.6254 21.2111C71.6254 16.805 74.081 14.2764 77.6728 14.2764C81.2628 14.2764 83.7202 16.8211 83.7202 21.2111C83.7202 25.6171 81.2646 28.2617 77.6728 28.2617C74.081 28.2617 71.6254 25.6189 71.6254 21.2111ZM80.6357 21.2111C80.6357 18.5075 79.4889 16.9103 77.6728 16.9103C75.8566 16.9103 74.7099 18.5075 74.7099 21.2111C74.7099 23.9146 75.8566 25.6296 77.6728 25.6296C79.4889 25.6296 80.6357 23.9164 80.6357 21.2111Z" fill="#313137"/>
<path d="M86.6197 21.3481C86.6197 16.8725 89.5403 14.2778 92.9049 14.2778C94.6259 14.2778 96.0122 15.0987 96.9088 16.0285L95.3217 17.9843C94.6541 17.3544 93.9354 16.91 92.9718 16.91C91.1451 16.91 89.7041 18.5411 89.7041 21.2446C89.7041 24.0178 90.9777 25.6292 92.9242 25.6292C94.0182 25.6292 94.8778 25.0832 95.5295 24.3676L97.1167 26.2824C96.0104 27.5851 94.5396 28.2614 92.8168 28.2614C89.4381 28.2614 86.6197 25.8916 86.6197 21.3481Z" fill="#313137"/>
<path d="M99.5298 21.2111C99.5298 16.805 101.985 14.2764 105.577 14.2764C109.167 14.2764 111.625 16.8211 111.625 21.2111C111.625 25.6171 109.169 28.2617 105.577 28.2617C101.985 28.2617 99.5298 25.6189 99.5298 21.2111ZM108.538 21.2111C108.538 18.5075 107.392 16.9103 105.575 16.9103C103.759 16.9103 102.612 18.5075 102.612 21.2111C102.612 23.9146 103.759 25.6296 105.575 25.6296C107.393 25.6296 108.538 23.9164 108.538 21.2111Z" fill="#313137"/>
<path d="M115.153 14.5264H124.241V17.0836H118.163V19.7925H119.997C122.796 19.7925 125.107 20.7669 125.107 23.7346C125.107 26.82 122.874 28.0139 120.08 28.0139H115.155V14.5264H115.153ZM119.765 25.6618C121.371 25.6618 122.162 25.0712 122.162 23.7756C122.162 22.5104 121.331 22.0428 119.75 22.0428H118.163V25.6618H119.765V25.6618Z" fill="#313137"/>
<path d="M126.652 28.0619L127.193 25.3191C127.364 25.3672 127.528 25.4083 127.766 25.4083C128.433 25.4083 128.905 25.0817 129.525 22.1854C130.064 19.6639 130.487 17.1191 130.958 14.5244H138.719V28.0119H135.708V17.0816H133.272C132.943 18.9964 132.627 20.731 132.3 22.5066C131.437 27.0376 130.339 28.26 128.211 28.26C127.501 28.2617 127.08 28.2207 126.652 28.0619Z" fill="#313137"/>
<path d="M142.873 14.5264H151.961V17.0836H145.884V19.7925H147.717C150.516 19.7925 152.828 20.7669 152.828 23.7346C152.828 26.82 150.594 28.0139 147.8 28.0139H142.875V14.5264H142.873ZM147.487 25.6618C149.093 25.6618 149.884 25.0712 149.884 23.7756C149.884 22.5104 149.053 22.0428 147.472 22.0428H145.885V25.6618H147.487V25.6618Z" fill="#313137"/>
<path d="M156.104 27.9942L156.645 25.3549C156.882 25.437 157.111 25.5137 157.649 25.5137C158.23 25.5137 158.677 25.3317 158.924 24.8927L159.123 24.4858L154.606 14.5264H157.791L159.343 18.463L160.451 21.6877H160.532L161.593 18.463L163 14.5264H166.018L161.906 24.9534C161.085 27.0056 159.875 28.2619 157.797 28.2619C157.029 28.2619 156.502 28.1531 156.104 27.9942Z" fill="#313137"/>
<path d="M170.853 21.0719L167.39 14.5244H170.744L171.901 17.0745C172.202 17.6955 172.488 18.3897 172.87 19.2374H172.951C173.259 18.3897 173.537 17.6955 173.803 17.0745L174.86 14.5244H178.072L174.608 21.2146L178.29 28.0119H174.936L173.622 25.2619C173.287 24.566 172.981 23.87 172.625 23.042H172.544C172.229 23.87 171.929 24.566 171.628 25.2619L170.381 28.0119H167.169L170.853 21.0719Z" fill="#313137"/>
<path d="M49.9303 39.9728C49.9552 39.944 49.9759 39.9137 49.9973 39.8827C50.0044 39.8719 50.0129 39.8625 50.0201 39.8517C50.055 39.7984 50.0849 39.7421 50.1098 39.6845C50.1169 39.6679 50.1219 39.6513 50.1283 39.6347C50.1454 39.5886 50.1604 39.5424 50.1711 39.4949C50.1753 39.4761 50.1803 39.4567 50.1839 39.4372C50.196 39.3723 50.2031 39.306 50.2038 39.2397C50.2038 39.2389 50.2038 39.2375 50.2038 39.2368V25.4043C50.2038 11.3966 38.9429 0 25.1019 0C11.261 0 0 11.3966 0 25.4043V39.2375C0 39.2389 0 39.2397 0 39.2404C0 39.3067 0.00783536 39.3723 0.0199447 39.4379C0.0235062 39.4574 0.0277807 39.4761 0.0327669 39.4956C0.0441639 39.5432 0.0584095 39.59 0.075505 39.6354C0.0819158 39.652 0.0869027 39.6693 0.0940259 39.6852C0.118957 39.7428 0.148874 39.7991 0.183777 39.8524C0.1909 39.8632 0.199448 39.8726 0.206571 39.8834C0.227941 39.9137 0.249309 39.9447 0.273528 39.9735L49.9303 39.9728ZM25.1026 2.22756C37.7305 2.22756 48.0035 12.625 48.0035 25.4043V38.1237H45.4263V25.4043C45.4263 14.0625 36.3087 4.83503 25.1019 4.83503C13.8951 4.83503 4.77749 14.0625 4.77749 25.4043V38.1237H2.20176V25.4043C2.20176 12.625 12.4747 2.22756 25.1026 2.22756ZM41.2045 38.1237V23.1695C41.2045 22.5661 40.7215 22.0774 40.1253 22.0774H32.4815C31.8853 22.0774 31.4023 22.5661 31.4023 23.1695V38.1237H30.0041V14.8965C30.0041 14.2932 29.5211 13.8044 28.9249 13.8044H21.2804C20.6842 13.8044 20.2012 14.2932 20.2012 14.8965V38.123H18.8029V29.0599C18.8029 28.4565 18.32 27.9678 17.7238 27.9678H10.0799C9.48374 27.9678 9.00079 28.4565 9.00079 29.0599V38.123H6.97925V25.4043C6.97925 15.2909 15.1096 7.06259 25.1026 7.06259C35.0957 7.06259 43.226 15.2909 43.226 25.4043V38.1237H41.2045ZM39.0462 38.1237H33.5599V24.2617H39.0462V38.1237ZM27.8457 38.1237H22.3595V15.9887H27.8457V38.1237ZM16.6446 38.1237H11.1584V30.1528H16.6446V38.1237Z" fill="#313137"/>
<path d="M10.041 38.189V29.1494C10.041 29.1154 10.0681 29.0879 10.101 29.0879H17.5598C17.6875 29.0879 17.7918 29.1943 17.7918 29.3254V38.189" stroke="#41BE06" stroke-width="3" stroke-miterlimit="10"/>
<path d="M32.4121 38.1888V23.3918C32.4121 23.2851 32.4964 23.1987 32.6004 23.1987H39.9747C40.0787 23.1987 40.1629 23.2851 40.1629 23.3918V38.1881" stroke="#41BE06" stroke-width="3" stroke-miterlimit="10"/>
<path d="M21.3149 38.1892V15.0912C21.3149 15.0357 21.3597 14.9902 21.4144 14.9902H28.8306C28.8633 14.9902 28.8896 15.0169 28.8896 15.0501V38.1884" stroke="#41BE06" stroke-width="3" stroke-miterlimit="10"/>
</svg>
