<svg width="30" height="30" viewBox="0 0 30 30" fill="none" xmlns="http://www.w3.org/2000/svg">
<path fill-rule="evenodd" clip-rule="evenodd" d="M6.2531 0.0768517C5.4144 0.223206 4.64124 0.703414 4.21426 1.34305C3.74168 2.05096 3.49183 3.30942 3.66511 4.10889C3.901 5.19697 4.76427 6.02732 6.12275 6.47272C8.28408 7.18139 12.2969 6.79743 13.7469 5.74323C14.0334 5.53492 14.17 5.38124 14.3276 5.08988C14.5127 4.74741 14.5306 4.67256 14.5044 4.34926C14.4647 3.85997 14.2341 3.46445 13.6687 2.9162C12.9003 2.17112 11.9227 1.53963 10.5501 0.901699C8.84293 0.108326 7.52378 -0.144936 6.2531 0.0768517ZM22.0156 0.0734522C20.8573 0.271151 19.6538 0.73231 18.3622 1.47328C16.5556 2.50966 15.5526 3.55266 15.5446 4.40312C15.5339 5.55901 16.8098 6.34406 19.2828 6.70306C21.315 6.99811 23.3486 6.80499 24.6286 6.19542C25.9248 5.57818 26.605 4.3764 26.4225 3.02644C26.2139 1.48442 25.4002 0.484498 24.0629 0.127141C23.617 0.00792389 22.5616 -0.019741 22.0156 0.0734522ZM7.65877 2.30399C8.11806 2.34819 8.94628 2.61376 9.57982 2.91995C10.5438 3.38585 11.703 4.12987 11.6077 4.22143C11.5029 4.32224 10.4027 4.50083 9.58067 4.55053C7.74815 4.66125 6.36437 4.37183 6.02282 3.80639C5.91283 3.62429 5.90875 3.57271 5.9749 3.20181C6.05922 2.72887 6.17634 2.48446 6.36694 2.38353C6.51863 2.30317 6.98536 2.22762 7.17418 2.25282C7.24125 2.26179 7.45934 2.28477 7.65877 2.30399ZM23.4282 2.30335C23.8275 2.3646 24.0934 2.81644 24.0934 3.43368C24.0934 3.72774 24.0735 3.77469 23.8639 3.97625C23.3919 4.42991 22.078 4.6551 20.4854 4.55522C19.8152 4.51326 18.5071 4.31093 18.4307 4.23755C18.3373 4.14769 19.4449 3.41979 20.3465 2.97844C21.288 2.51769 22.5622 2.18038 23.0874 2.25288C23.1544 2.26214 23.3079 2.28488 23.4282 2.30335ZM0.889319 8.01445C0.548984 8.16303 0.220111 8.50415 0.105548 8.82728C-0.0313912 9.21365 -0.0367565 13.739 0.0992678 14.1097C0.233036 14.4741 0.472283 14.7381 0.819752 14.9045L1.13161 15.0539H7.32691C12.5813 15.0539 13.5403 15.0413 13.6406 14.9708C13.7554 14.8901 13.759 14.7857 13.759 11.5074V8.12733L13.615 8.01533C13.4754 7.9066 13.2863 7.90332 7.3046 7.90455C1.43244 7.90578 1.12625 7.911 0.889319 8.01445ZM16.3546 8.0577C16.2302 8.20974 16.2282 8.26273 16.2282 11.4786C16.2282 14.6945 16.2302 14.7474 16.3546 14.8995L16.481 15.0539H22.6835H28.8861L29.1979 14.9045C29.3694 14.8224 29.5825 14.6635 29.6714 14.5515C30.0055 14.1303 30.0129 14.0583 29.9942 11.3867C29.9783 9.11038 29.9685 8.91244 29.8613 8.70507C29.7086 8.40943 29.4272 8.14498 29.1248 8.01292C28.8925 7.91147 28.5523 7.90578 22.6803 7.90455L16.481 7.90326L16.3546 8.0577ZM2.74293 16.7178C2.36894 16.8152 2.06464 17.0443 1.85588 17.3857L1.68687 17.6622V23.3182V28.9743L1.81844 29.2087C1.99074 29.5156 2.23267 29.7309 2.57094 29.878C2.84024 29.9952 2.94468 29.9974 8.22451 29.9987L13.6037 30L13.6974 29.8626C13.7804 29.7408 13.7892 29 13.775 23.329L13.759 16.9327L13.6201 16.7993L13.4812 16.6658L8.25469 16.6546C4.19372 16.6459 2.96456 16.66 2.74293 16.7178ZM16.5343 16.7117C16.2195 16.8649 16.2301 16.6307 16.2292 23.4208C16.2282 29.688 16.2297 29.767 16.3502 29.8828C16.4703 29.9982 16.5525 30 21.8223 29.9987C27.0728 29.9974 27.1775 29.9952 27.4467 29.878C27.785 29.7309 28.0269 29.5156 28.1992 29.2087L28.3308 28.9743V23.3182V17.6622L28.1591 17.3813C27.9445 17.0303 27.5925 16.7809 27.1968 16.6993C26.7279 16.6026 16.7347 16.6143 16.5343 16.7117Z" fill="#41BF06"/>
</svg>
