<svg width="22" height="22" viewBox="0 0 22 22" fill="none" xmlns="http://www.w3.org/2000/svg">
<path d="M11 0C4.92487 0 0 4.92487 0 11C0 17.0751 4.92487 22 11 22C17.0751 22 22 17.0751 22 11C21.9929 4.9278 17.0722 0.00707187 11 0Z" fill="#41BF06" fill-opacity="0.15"/>
<path d="M17.7901 7.43858L11.3234 15.6444C11.1692 15.8358 10.9392 15.9611 10.6852 15.9924C10.4311 16.0236 10.1743 15.9581 9.97244 15.8105L5.35459 12.3582C4.94709 12.0533 4.88111 11.4972 5.20721 11.1162C5.53331 10.7351 6.12801 10.6734 6.5355 10.9783L10.3862 13.8591L16.2691 6.39352C16.462 6.12284 16.7984 5.97319 17.1447 6.00398C17.491 6.03477 17.7912 6.24102 17.9261 6.54085C18.061 6.84068 18.0087 7.18556 17.7901 7.43858Z" fill="#41BF06"/>
</svg>
