<svg width="137" height="18" viewBox="0 0 137 18" fill="none" xmlns="http://www.w3.org/2000/svg">
<path d="M7.134 12.224C7.198 12.224 7.254 12.25 7.302 12.302L7.764 12.8C7.412 13.208 6.984 13.526 6.48 13.754C5.98 13.982 5.374 14.096 4.662 14.096C4.046 14.096 3.486 13.99 2.982 13.778C2.478 13.562 2.048 13.262 1.692 12.878C1.336 12.49 1.06 12.026 0.864 11.486C0.668 10.946 0.57 10.352 0.57 9.704C0.57 9.056 0.672 8.462 0.876 7.922C1.08 7.382 1.366 6.918 1.734 6.53C2.106 6.142 2.55 5.842 3.066 5.63C3.582 5.414 4.152 5.306 4.776 5.306C5.388 5.306 5.928 5.404 6.396 5.6C6.864 5.796 7.276 6.062 7.632 6.398L7.248 6.932C7.224 6.972 7.192 7.006 7.152 7.034C7.116 7.058 7.066 7.07 7.002 7.07C6.93 7.07 6.842 7.032 6.738 6.956C6.634 6.876 6.498 6.788 6.33 6.692C6.162 6.596 5.952 6.51 5.7 6.434C5.448 6.354 5.138 6.314 4.77 6.314C4.326 6.314 3.92 6.392 3.552 6.548C3.184 6.7 2.866 6.922 2.598 7.214C2.334 7.506 2.128 7.862 1.98 8.282C1.832 8.702 1.758 9.176 1.758 9.704C1.758 10.24 1.834 10.718 1.986 11.138C2.142 11.558 2.352 11.914 2.616 12.206C2.884 12.494 3.198 12.714 3.558 12.866C3.922 13.018 4.314 13.094 4.734 13.094C4.99 13.094 5.22 13.08 5.424 13.052C5.632 13.02 5.822 12.972 5.994 12.908C6.17 12.844 6.332 12.764 6.48 12.668C6.632 12.568 6.782 12.45 6.93 12.314C6.998 12.254 7.066 12.224 7.134 12.224ZM13.0496 13.22V8.762H11.1236C11.0836 9.386 11.0276 9.938 10.9556 10.418C10.8836 10.898 10.7996 11.32 10.7036 11.684C10.6116 12.044 10.5076 12.35 10.3916 12.602C10.2796 12.854 10.1616 13.06 10.0376 13.22H13.0496ZM15.1976 13.19V15.764C15.1976 15.868 15.1676 15.948 15.1076 16.004C15.0516 16.064 14.9776 16.094 14.8856 16.094H14.2316V14H9.11963V15.788C9.11963 15.864 9.09563 15.934 9.04763 15.998C9.00363 16.062 8.92963 16.094 8.82563 16.094H8.15363V13.22H8.35163C8.49163 13.22 8.62963 13.196 8.76562 13.148C8.90563 13.1 9.03963 13.01 9.16763 12.878C9.29563 12.742 9.41563 12.552 9.52763 12.308C9.64363 12.064 9.74763 11.746 9.83963 11.354C9.93163 10.962 10.0116 10.486 10.0796 9.926C10.1476 9.362 10.2016 8.694 10.2416 7.922H14.0876V13.19H15.1976ZM20.2421 10.298C20.2421 10.05 20.2061 9.824 20.1341 9.62C20.0661 9.412 19.9641 9.234 19.8281 9.086C19.6961 8.934 19.5341 8.818 19.3421 8.738C19.1501 8.654 18.9321 8.612 18.6881 8.612C18.1761 8.612 17.7701 8.762 17.4701 9.062C17.1741 9.358 16.9901 9.77 16.9181 10.298H20.2421ZM21.1061 13.148C20.9741 13.308 20.8161 13.448 20.6321 13.568C20.4481 13.684 20.2501 13.78 20.0381 13.856C19.8301 13.932 19.6141 13.988 19.3901 14.024C19.1661 14.064 18.9441 14.084 18.7241 14.084C18.3041 14.084 17.9161 14.014 17.5601 13.874C17.2081 13.73 16.9021 13.522 16.6421 13.25C16.3861 12.974 16.1861 12.634 16.0421 12.23C15.8981 11.826 15.8261 11.362 15.8261 10.838C15.8261 10.414 15.8901 10.018 16.0181 9.65C16.1501 9.282 16.3381 8.964 16.5821 8.696C16.8261 8.424 17.1241 8.212 17.4761 8.06C17.8281 7.904 18.2241 7.826 18.6641 7.826C19.0281 7.826 19.3641 7.888 19.6721 8.012C19.9841 8.132 20.2521 8.308 20.4761 8.54C20.7041 8.768 20.8821 9.052 21.0101 9.392C21.1381 9.728 21.2021 10.112 21.2021 10.544C21.2021 10.712 21.1841 10.824 21.1481 10.88C21.1121 10.936 21.0441 10.964 20.9441 10.964H16.8821C16.8941 11.348 16.9461 11.682 17.0381 11.966C17.1341 12.25 17.2661 12.488 17.4341 12.68C17.6021 12.868 17.8021 13.01 18.0341 13.106C18.2661 13.198 18.5261 13.244 18.8141 13.244C19.0821 13.244 19.3121 13.214 19.5041 13.154C19.7001 13.09 19.8681 13.022 20.0081 12.95C20.1481 12.878 20.2641 12.812 20.3561 12.752C20.4521 12.688 20.5341 12.656 20.6021 12.656C20.6901 12.656 20.7581 12.69 20.8061 12.758L21.1061 13.148ZM27.842 14H26.774V8.762H24.854C24.806 9.534 24.734 10.202 24.638 10.766C24.542 11.326 24.426 11.804 24.29 12.2C24.158 12.592 24.008 12.912 23.84 13.16C23.676 13.404 23.502 13.594 23.318 13.73C23.138 13.866 22.95 13.958 22.754 14.006C22.562 14.054 22.37 14.078 22.178 14.078C21.838 14.078 21.668 14.024 21.668 13.916V13.238H21.98C22.116 13.238 22.254 13.214 22.394 13.166C22.534 13.118 22.67 13.026 22.802 12.89C22.938 12.754 23.068 12.564 23.192 12.32C23.316 12.072 23.428 11.752 23.528 11.36C23.632 10.964 23.72 10.486 23.792 9.926C23.868 9.362 23.926 8.694 23.966 7.922H27.842V14ZM32.8275 11.264C32.3355 11.28 31.9155 11.32 31.5675 11.384C31.2235 11.444 30.9415 11.524 30.7215 11.624C30.5055 11.724 30.3475 11.842 30.2475 11.978C30.1515 12.114 30.1035 12.266 30.1035 12.434C30.1035 12.594 30.1295 12.732 30.1815 12.848C30.2335 12.964 30.3035 13.06 30.3915 13.136C30.4835 13.208 30.5895 13.262 30.7095 13.298C30.8335 13.33 30.9655 13.346 31.1055 13.346C31.2935 13.346 31.4655 13.328 31.6215 13.292C31.7775 13.252 31.9235 13.196 32.0595 13.124C32.1995 13.052 32.3315 12.966 32.4555 12.866C32.5835 12.766 32.7075 12.652 32.8275 12.524V11.264ZM29.3775 8.78C29.7135 8.456 30.0755 8.214 30.4635 8.054C30.8515 7.894 31.2815 7.814 31.7535 7.814C32.0935 7.814 32.3955 7.87 32.6595 7.982C32.9235 8.094 33.1455 8.25 33.3255 8.45C33.5055 8.65 33.6415 8.892 33.7335 9.176C33.8255 9.46 33.8715 9.772 33.8715 10.112V14H33.3975C33.2935 14 33.2135 13.984 33.1575 13.952C33.1015 13.916 33.0575 13.848 33.0255 13.748L32.9055 13.172C32.7455 13.32 32.5895 13.452 32.4375 13.568C32.2855 13.68 32.1255 13.776 31.9575 13.856C31.7895 13.932 31.6095 13.99 31.4175 14.03C31.2295 14.074 31.0195 14.096 30.7875 14.096C30.5515 14.096 30.3295 14.064 30.1215 14C29.9135 13.932 29.7315 13.832 29.5755 13.7C29.4235 13.568 29.3015 13.402 29.2095 13.202C29.1215 12.998 29.0775 12.758 29.0775 12.482C29.0775 12.242 29.1435 12.012 29.2755 11.792C29.4075 11.568 29.6215 11.37 29.9175 11.198C30.2135 11.026 30.5995 10.886 31.0755 10.778C31.5515 10.666 32.1355 10.602 32.8275 10.586V10.112C32.8275 9.64 32.7255 9.284 32.5215 9.044C32.3175 8.8 32.0195 8.678 31.6275 8.678C31.3635 8.678 31.1415 8.712 30.9615 8.78C30.7855 8.844 30.6315 8.918 30.4995 9.002C30.3715 9.082 30.2595 9.156 30.1635 9.224C30.0715 9.288 29.9795 9.32 29.8875 9.32C29.8155 9.32 29.7535 9.302 29.7015 9.266C29.6495 9.226 29.6055 9.178 29.5695 9.122L29.3775 8.78ZM40.5623 7.922V14H39.4883V11.156H36.5723V14H35.4983V7.922H36.5723V10.346H39.4883V7.922H40.5623ZM44.8221 7.826C45.2661 7.826 45.6661 7.9 46.0221 8.048C46.3781 8.196 46.6821 8.406 46.9341 8.678C47.1861 8.95 47.3781 9.28 47.5101 9.668C47.6461 10.052 47.7141 10.482 47.7141 10.958C47.7141 11.438 47.6461 11.87 47.5101 12.254C47.3781 12.638 47.1861 12.966 46.9341 13.238C46.6821 13.51 46.3781 13.72 46.0221 13.868C45.6661 14.012 45.2661 14.084 44.8221 14.084C44.3741 14.084 43.9701 14.012 43.6101 13.868C43.2541 13.72 42.9501 13.51 42.6981 13.238C42.4461 12.966 42.2521 12.638 42.1161 12.254C41.9841 11.87 41.9181 11.438 41.9181 10.958C41.9181 10.482 41.9841 10.052 42.1161 9.668C42.2521 9.28 42.4461 8.95 42.6981 8.678C42.9501 8.406 43.2541 8.196 43.6101 8.048C43.9701 7.9 44.3741 7.826 44.8221 7.826ZM44.8221 13.25C45.4221 13.25 45.8701 13.05 46.1661 12.65C46.4621 12.246 46.6101 11.684 46.6101 10.964C46.6101 10.24 46.4621 9.676 46.1661 9.272C45.8701 8.868 45.4221 8.666 44.8221 8.666C44.5181 8.666 44.2521 8.718 44.0241 8.822C43.8001 8.926 43.6121 9.076 43.4601 9.272C43.3121 9.468 43.2001 9.71 43.1241 9.998C43.0521 10.282 43.0161 10.604 43.0161 10.964C43.0161 11.684 43.1641 12.246 43.4601 12.65C43.7601 13.05 44.2141 13.25 44.8221 13.25Z" fill="white"/>
<path fill-rule="evenodd" clip-rule="evenodd" d="M60.9996 14.272C57.9335 12.5257 56.2235 10.79 55.3966 9.2841C54.5502 7.74277 54.6241 6.44459 55.0937 5.52322C56.059 3.6294 58.8041 3.02382 60.4766 5.13914L60.9995 5.8005L61.5225 5.13917C63.1953 3.02376 65.9405 3.62945 66.9058 5.52322C67.3754 6.44457 67.4493 7.74275 66.6029 9.28408C65.7759 10.79 64.0658 12.5257 60.9996 14.272ZM60.9996 3.73775C58.6468 1.50201 55.1759 2.42603 53.9058 4.91772C53.2088 6.28519 53.1993 8.05261 54.2279 9.92585C55.2473 11.7825 57.2799 13.7422 60.6771 15.6199L60.9996 15.7981L61.3221 15.6199C64.7193 13.7422 66.752 11.7825 67.7716 9.92586C68.8002 8.05263 68.7908 6.28521 68.0937 4.91772C66.8236 2.42599 63.3526 1.50204 60.9996 3.73775Z" fill="#0C9C09"/>
<path d="M73.846 14V7.922H74.488C74.64 7.922 74.734 7.996 74.77 8.144L74.848 8.768C75.072 8.492 75.324 8.266 75.604 8.09C75.884 7.914 76.208 7.826 76.576 7.826C76.984 7.826 77.314 7.94 77.566 8.168C77.822 8.396 78.006 8.704 78.118 9.092C78.206 8.872 78.318 8.682 78.454 8.522C78.594 8.362 78.75 8.23 78.922 8.126C79.094 8.022 79.276 7.946 79.468 7.898C79.664 7.85 79.862 7.826 80.062 7.826C80.382 7.826 80.666 7.878 80.914 7.982C81.166 8.082 81.378 8.23 81.55 8.426C81.726 8.622 81.86 8.864 81.952 9.152C82.044 9.436 82.09 9.762 82.09 10.13V14H81.016V10.13C81.016 9.654 80.912 9.294 80.704 9.05C80.496 8.802 80.196 8.678 79.804 8.678C79.628 8.678 79.46 8.71 79.3 8.774C79.144 8.834 79.006 8.924 78.886 9.044C78.766 9.164 78.67 9.316 78.598 9.5C78.53 9.68 78.496 9.89 78.496 10.13V14H77.422V10.13C77.422 9.642 77.324 9.278 77.128 9.038C76.932 8.798 76.646 8.678 76.27 8.678C76.006 8.678 75.762 8.75 75.538 8.894C75.314 9.034 75.108 9.226 74.92 9.47V14H73.846ZM87.0072 11.264C86.5152 11.28 86.0952 11.32 85.7472 11.384C85.4032 11.444 85.1212 11.524 84.9012 11.624C84.6852 11.724 84.5272 11.842 84.4272 11.978C84.3312 12.114 84.2832 12.266 84.2832 12.434C84.2832 12.594 84.3092 12.732 84.3612 12.848C84.4132 12.964 84.4832 13.06 84.5712 13.136C84.6632 13.208 84.7692 13.262 84.8892 13.298C85.0132 13.33 85.1452 13.346 85.2852 13.346C85.4732 13.346 85.6452 13.328 85.8012 13.292C85.9572 13.252 86.1032 13.196 86.2392 13.124C86.3792 13.052 86.5112 12.966 86.6352 12.866C86.7632 12.766 86.8872 12.652 87.0072 12.524V11.264ZM83.5572 8.78C83.8932 8.456 84.2552 8.214 84.6432 8.054C85.0312 7.894 85.4612 7.814 85.9332 7.814C86.2732 7.814 86.5752 7.87 86.8392 7.982C87.1032 8.094 87.3252 8.25 87.5052 8.45C87.6852 8.65 87.8212 8.892 87.9132 9.176C88.0052 9.46 88.0512 9.772 88.0512 10.112V14H87.5772C87.4732 14 87.3932 13.984 87.3372 13.952C87.2812 13.916 87.2372 13.848 87.2052 13.748L87.0852 13.172C86.9252 13.32 86.7692 13.452 86.6172 13.568C86.4652 13.68 86.3052 13.776 86.1372 13.856C85.9692 13.932 85.7892 13.99 85.5972 14.03C85.4092 14.074 85.1992 14.096 84.9672 14.096C84.7312 14.096 84.5092 14.064 84.3012 14C84.0932 13.932 83.9112 13.832 83.7552 13.7C83.6032 13.568 83.4812 13.402 83.3892 13.202C83.3012 12.998 83.2572 12.758 83.2572 12.482C83.2572 12.242 83.3232 12.012 83.4552 11.792C83.5872 11.568 83.8012 11.37 84.0972 11.198C84.3932 11.026 84.7792 10.886 85.2552 10.778C85.7312 10.666 86.3152 10.602 87.0072 10.586V10.112C87.0072 9.64 86.9052 9.284 86.7012 9.044C86.4972 8.8 86.1992 8.678 85.8072 8.678C85.5432 8.678 85.3212 8.712 85.1412 8.78C84.9652 8.844 84.8112 8.918 84.6792 9.002C84.5512 9.082 84.4392 9.156 84.3432 9.224C84.2512 9.288 84.1592 9.32 84.0672 9.32C83.9952 9.32 83.9332 9.302 83.8812 9.266C83.8292 9.226 83.7852 9.178 83.7492 9.122L83.5572 8.78ZM90.752 5.162V10.364H91.028C91.108 10.364 91.174 10.354 91.226 10.334C91.282 10.31 91.34 10.264 91.4 10.196L93.32 8.138C93.376 8.07 93.434 8.018 93.494 7.982C93.558 7.942 93.642 7.922 93.746 7.922H94.712L92.474 10.304C92.366 10.44 92.25 10.546 92.126 10.622C92.198 10.67 92.262 10.726 92.318 10.79C92.378 10.85 92.434 10.92 92.486 11L94.862 14H93.908C93.816 14 93.736 13.986 93.668 13.958C93.604 13.926 93.548 13.87 93.5 13.79L91.502 11.3C91.442 11.216 91.382 11.162 91.322 11.138C91.266 11.11 91.178 11.096 91.058 11.096H90.752V14H89.678V5.162H90.752ZM99.3118 8.924C99.2638 9.012 99.1898 9.056 99.0898 9.056C99.0298 9.056 98.9618 9.034 98.8858 8.99C98.8098 8.946 98.7158 8.898 98.6038 8.846C98.4958 8.79 98.3658 8.74 98.2138 8.696C98.0618 8.648 97.8818 8.624 97.6738 8.624C97.4938 8.624 97.3318 8.648 97.1878 8.696C97.0438 8.74 96.9198 8.802 96.8158 8.882C96.7158 8.962 96.6378 9.056 96.5818 9.164C96.5298 9.268 96.5038 9.382 96.5038 9.506C96.5038 9.662 96.5478 9.792 96.6358 9.896C96.7278 10 96.8478 10.09 96.9958 10.166C97.1438 10.242 97.3118 10.31 97.4998 10.37C97.6878 10.426 97.8798 10.488 98.0758 10.556C98.2758 10.62 98.4698 10.692 98.6578 10.772C98.8458 10.852 99.0138 10.952 99.1618 11.072C99.3098 11.192 99.4278 11.34 99.5158 11.516C99.6078 11.688 99.6538 11.896 99.6538 12.14C99.6538 12.42 99.6038 12.68 99.5038 12.92C99.4038 13.156 99.2558 13.362 99.0598 13.538C98.8638 13.71 98.6238 13.846 98.3398 13.946C98.0558 14.046 97.7278 14.096 97.3558 14.096C96.9318 14.096 96.5478 14.028 96.2038 13.892C95.8598 13.752 95.5678 13.574 95.3278 13.358L95.5798 12.95C95.6118 12.898 95.6498 12.858 95.6938 12.83C95.7378 12.802 95.7938 12.788 95.8618 12.788C95.9338 12.788 96.0098 12.816 96.0898 12.872C96.1698 12.928 96.2658 12.99 96.3778 13.058C96.4938 13.126 96.6338 13.188 96.7978 13.244C96.9618 13.3 97.1658 13.328 97.4098 13.328C97.6178 13.328 97.7998 13.302 97.9558 13.25C98.1118 13.194 98.2418 13.12 98.3458 13.028C98.4498 12.936 98.5258 12.83 98.5738 12.71C98.6258 12.59 98.6518 12.462 98.6518 12.326C98.6518 12.158 98.6058 12.02 98.5138 11.912C98.4258 11.8 98.3078 11.706 98.1598 11.63C98.0118 11.55 97.8418 11.482 97.6498 11.426C97.4618 11.366 97.2678 11.304 97.0678 11.24C96.8718 11.176 96.6778 11.104 96.4858 11.024C96.2978 10.94 96.1298 10.836 95.9818 10.712C95.8338 10.588 95.7138 10.436 95.6218 10.256C95.5338 10.072 95.4898 9.85 95.4898 9.59C95.4898 9.358 95.5378 9.136 95.6338 8.924C95.7298 8.708 95.8698 8.52 96.0538 8.36C96.2378 8.196 96.4638 8.066 96.7318 7.97C96.9998 7.874 97.3058 7.826 97.6498 7.826C98.0498 7.826 98.4078 7.89 98.7238 8.018C99.0438 8.142 99.3198 8.314 99.5518 8.534L99.3118 8.924ZM105.235 14.99V15.71H100.507V14.99H105.235ZM107.545 12.536C107.741 12.8 107.955 12.986 108.187 13.094C108.419 13.202 108.679 13.256 108.967 13.256C109.535 13.256 109.971 13.054 110.275 12.65C110.579 12.246 110.731 11.67 110.731 10.922C110.731 10.526 110.695 10.186 110.623 9.902C110.555 9.618 110.455 9.386 110.323 9.206C110.191 9.022 110.029 8.888 109.837 8.804C109.645 8.72 109.427 8.678 109.183 8.678C108.835 8.678 108.529 8.758 108.265 8.918C108.005 9.078 107.765 9.304 107.545 9.596V12.536ZM107.491 8.864C107.747 8.548 108.043 8.294 108.379 8.102C108.715 7.91 109.099 7.814 109.531 7.814C109.883 7.814 110.201 7.882 110.485 8.018C110.769 8.15 111.011 8.348 111.211 8.612C111.411 8.872 111.565 9.196 111.673 9.584C111.781 9.972 111.835 10.418 111.835 10.922C111.835 11.37 111.775 11.788 111.655 12.176C111.535 12.56 111.361 12.894 111.133 13.178C110.909 13.458 110.633 13.68 110.305 13.844C109.981 14.004 109.615 14.084 109.207 14.084C108.835 14.084 108.515 14.022 108.247 13.898C107.983 13.77 107.749 13.594 107.545 13.37V16.058H106.471V7.922H107.113C107.265 7.922 107.359 7.996 107.395 8.144L107.491 8.864ZM114.212 9.14C114.404 8.724 114.64 8.4 114.92 8.168C115.2 7.932 115.542 7.814 115.946 7.814C116.074 7.814 116.196 7.828 116.312 7.856C116.432 7.884 116.538 7.928 116.63 7.988L116.552 8.786C116.528 8.886 116.468 8.936 116.372 8.936C116.316 8.936 116.234 8.924 116.126 8.9C116.018 8.876 115.896 8.864 115.76 8.864C115.568 8.864 115.396 8.892 115.244 8.948C115.096 9.004 114.962 9.088 114.842 9.2C114.726 9.308 114.62 9.444 114.524 9.608C114.432 9.768 114.348 9.952 114.272 10.16V14H113.198V7.922H113.81C113.926 7.922 114.006 7.944 114.05 7.988C114.094 8.032 114.124 8.108 114.14 8.216L114.212 9.14ZM119.885 7.826C120.329 7.826 120.729 7.9 121.085 8.048C121.441 8.196 121.745 8.406 121.997 8.678C122.249 8.95 122.441 9.28 122.573 9.668C122.709 10.052 122.777 10.482 122.777 10.958C122.777 11.438 122.709 11.87 122.573 12.254C122.441 12.638 122.249 12.966 121.997 13.238C121.745 13.51 121.441 13.72 121.085 13.868C120.729 14.012 120.329 14.084 119.885 14.084C119.437 14.084 119.033 14.012 118.673 13.868C118.317 13.72 118.013 13.51 117.761 13.238C117.509 12.966 117.315 12.638 117.179 12.254C117.047 11.87 116.981 11.438 116.981 10.958C116.981 10.482 117.047 10.052 117.179 9.668C117.315 9.28 117.509 8.95 117.761 8.678C118.013 8.406 118.317 8.196 118.673 8.048C119.033 7.9 119.437 7.826 119.885 7.826ZM119.885 13.25C120.485 13.25 120.933 13.05 121.229 12.65C121.525 12.246 121.673 11.684 121.673 10.964C121.673 10.24 121.525 9.676 121.229 9.272C120.933 8.868 120.485 8.666 119.885 8.666C119.581 8.666 119.315 8.718 119.087 8.822C118.863 8.926 118.675 9.076 118.523 9.272C118.375 9.468 118.263 9.71 118.187 9.998C118.115 10.282 118.079 10.604 118.079 10.964C118.079 11.684 118.227 12.246 118.523 12.65C118.823 13.05 119.277 13.25 119.885 13.25ZM129.129 7.922V14H128.493C128.341 14 128.245 13.926 128.205 13.778L128.121 13.124C127.857 13.416 127.561 13.652 127.233 13.832C126.905 14.008 126.529 14.096 126.105 14.096C125.773 14.096 125.479 14.042 125.223 13.934C124.971 13.822 124.759 13.666 124.587 13.466C124.415 13.266 124.285 13.024 124.197 12.74C124.113 12.456 124.071 12.142 124.071 11.798V7.922H125.139V11.798C125.139 12.258 125.243 12.614 125.451 12.866C125.663 13.118 125.985 13.244 126.417 13.244C126.733 13.244 127.027 13.17 127.299 13.022C127.575 12.87 127.829 12.662 128.061 12.398V7.922H129.129ZM134.783 9.368C134.583 9.1 134.367 8.914 134.135 8.81C133.903 8.702 133.643 8.648 133.355 8.648C132.791 8.648 132.357 8.85 132.053 9.254C131.749 9.658 131.597 10.234 131.597 10.982C131.597 11.378 131.631 11.718 131.699 12.002C131.767 12.282 131.867 12.514 131.999 12.698C132.131 12.878 132.293 13.01 132.485 13.094C132.677 13.178 132.895 13.22 133.139 13.22C133.491 13.22 133.797 13.14 134.057 12.98C134.321 12.82 134.563 12.594 134.783 12.302V9.368ZM135.851 5.162V14H135.215C135.063 14 134.967 13.926 134.927 13.778L134.831 13.04C134.571 13.352 134.275 13.604 133.943 13.796C133.611 13.988 133.227 14.084 132.791 14.084C132.443 14.084 132.127 14.018 131.843 13.886C131.559 13.75 131.317 13.552 131.117 13.292C130.917 13.032 130.763 12.708 130.655 12.32C130.547 11.932 130.493 11.486 130.493 10.982C130.493 10.534 130.553 10.118 130.673 9.734C130.793 9.346 130.965 9.01 131.189 8.726C131.413 8.442 131.687 8.22 132.011 8.06C132.339 7.896 132.707 7.814 133.115 7.814C133.487 7.814 133.805 7.878 134.069 8.006C134.337 8.13 134.575 8.304 134.783 8.528V5.162H135.851Z" fill="white"/>
<path d="M73 17.06H136.697V17.594H73V17.06Z" fill="white"/>
</svg>
