<svg width="28" height="28" viewBox="0 0 28 28" fill="none" xmlns="http://www.w3.org/2000/svg">
<path d="M25.6317 21.3849C25.6317 21.8049 25.5383 22.2366 25.34 22.6566C25.1417 23.0766 24.885 23.4733 24.5467 23.8466C23.975 24.4766 23.345 24.9316 22.6333 25.2233C21.9333 25.5149 21.175 25.6666 20.3583 25.6666C19.1683 25.6666 17.8967 25.3866 16.555 24.8149C15.2133 24.2433 13.8717 23.4733 12.5417 22.5049C11.2 21.5249 9.92833 20.4399 8.71499 19.2383C7.51333 18.0249 6.42833 16.7533 5.45999 15.4233C4.50333 14.0933 3.73333 12.7633 3.17333 11.4449C2.61333 10.1149 2.33333 8.84325 2.33333 7.62992C2.33333 6.83659 2.47333 6.07825 2.75333 5.37825C3.03333 4.66659 3.47666 4.01325 4.09499 3.42992C4.84166 2.69492 5.65833 2.33325 6.52166 2.33325C6.84833 2.33325 7.17499 2.40325 7.46666 2.54325C7.76999 2.68325 8.03833 2.89325 8.24833 3.19659L10.955 7.01159C11.165 7.30325 11.3167 7.57159 11.4217 7.82825C11.5267 8.07325 11.585 8.31825 11.585 8.53992C11.585 8.81992 11.5033 9.09992 11.34 9.36825C11.1883 9.63659 10.9667 9.91659 10.6867 10.1966L9.79999 11.1183C9.67166 11.2466 9.61333 11.3983 9.61333 11.5849C9.61333 11.6783 9.625 11.7599 9.64833 11.8533C9.68333 11.9466 9.71833 12.0166 9.74166 12.0866C9.95166 12.4716 10.3133 12.9733 10.8267 13.5799C11.3517 14.1866 11.9117 14.8049 12.5183 15.4233C13.1483 16.0416 13.755 16.6133 14.3733 17.1383C14.98 17.6516 15.4817 18.0016 15.8783 18.2116C15.9367 18.2349 16.0067 18.2699 16.0883 18.3049C16.1817 18.3399 16.275 18.3516 16.38 18.3516C16.5783 18.3516 16.73 18.2816 16.8583 18.1533L17.745 17.2783C18.0367 16.9866 18.3167 16.7649 18.585 16.6249C18.8533 16.4616 19.1217 16.3799 19.4133 16.3799C19.635 16.3799 19.8683 16.4266 20.125 16.5316C20.3817 16.6366 20.65 16.7883 20.9417 16.9866L24.8033 19.7283C25.1067 19.9383 25.3167 20.1833 25.445 20.4749C25.5617 20.7666 25.6317 21.0583 25.6317 21.3849Z" stroke="#41BF06" stroke-width="1.5" stroke-miterlimit="10"/>
<path d="M21.5833 10.4998C21.5833 9.79984 21.035 8.7265 20.2183 7.8515C19.4717 7.0465 18.48 6.4165 17.5 6.4165" stroke="#41BF06" stroke-width="1.5" stroke-linecap="round" stroke-linejoin="round"/>
<path d="M25.6667 10.4999C25.6667 5.98492 22.015 2.33325 17.5 2.33325" stroke="#41BF06" stroke-width="1.5" stroke-linecap="round" stroke-linejoin="round"/>
</svg>
