<svg width="30" height="30" viewBox="0 0 30 30" fill="none" xmlns="http://www.w3.org/2000/svg">
<circle opacity="0.12" cx="15" cy="15" r="15" fill="#313137"/>
<path d="M21.2378 12.425C21.2085 11.7609 21.1011 11.3042 20.9472 10.9086C20.7885 10.4886 20.5443 10.1126 20.2244 9.80001C19.9118 9.48256 19.5333 9.2359 19.1182 9.07965C18.7202 8.9258 18.266 8.81839 17.6018 8.78911C16.9327 8.75734 16.7203 8.75 15.0232 8.75C13.3261 8.75 13.1137 8.75734 12.447 8.78663C11.7828 8.81591 11.3262 8.92341 10.9307 9.07717C10.5106 9.2359 10.1346 9.48008 9.82198 9.80001C9.50454 10.1126 9.25796 10.4911 9.10163 10.9062C8.94777 11.3042 8.84036 11.7584 8.81108 12.4226C8.77932 13.0917 8.77197 13.3041 8.77197 15.0012C8.77197 16.6983 8.77932 16.9108 8.8086 17.5774C8.83788 18.2416 8.94538 18.6982 9.09924 19.0939C9.25796 19.5138 9.50454 19.8899 9.82198 20.2024C10.1346 20.5199 10.5131 20.7665 10.9282 20.9228C11.3262 21.0766 11.7803 21.1841 12.4446 21.2133C13.1112 21.2427 13.3237 21.25 15.0208 21.25C16.7179 21.25 16.9303 21.2427 17.597 21.2133C18.2612 21.1841 18.7178 21.0766 19.1133 20.9228C19.9534 20.598 20.6176 19.9338 20.9424 19.0939C21.0961 18.6958 21.2036 18.2416 21.2329 17.5774C21.2622 16.9108 21.2695 16.6983 21.2695 15.0012C21.2695 13.3041 21.2671 13.0917 21.2378 12.425ZM20.1121 17.5286C20.0852 18.139 19.9827 18.4687 19.8972 18.6885C19.6872 19.233 19.255 19.6652 18.7104 19.8753C18.4907 19.9607 18.1586 20.0633 17.5505 20.0901C16.8912 20.1194 16.6935 20.1267 15.0257 20.1267C13.3578 20.1267 13.1576 20.1194 12.5007 20.0901C11.8902 20.0633 11.5606 19.9607 11.3408 19.8753C11.0698 19.7751 10.8232 19.6164 10.6229 19.4088C10.4154 19.2061 10.2567 18.9619 10.1565 18.6909C10.071 18.4712 9.96849 18.139 9.94169 17.531C9.91231 16.8717 9.90506 16.6739 9.90506 15.0061C9.90506 13.3383 9.91231 13.138 9.94169 12.4812C9.96849 11.8707 10.071 11.5411 10.1565 11.3213C10.2567 11.0502 10.4154 10.8037 10.6254 10.6034C10.828 10.3958 11.0722 10.2371 11.3433 10.137C11.5631 10.0515 11.8952 9.949 12.5032 9.9221C13.1625 9.89282 13.3603 9.88548 15.028 9.88548C16.6984 9.88548 16.8961 9.89282 17.553 9.9221C18.1635 9.949 18.4931 10.0515 18.7129 10.137C18.9839 10.2371 19.2306 10.3958 19.4308 10.6034C19.6383 10.806 19.7971 11.0502 19.8972 11.3213C19.9827 11.5411 20.0852 11.8731 20.1121 12.4812C20.1414 13.1405 20.1487 13.3383 20.1487 15.0061C20.1487 16.6739 20.1414 16.8693 20.1121 17.5286Z" fill="#313137"/>
<path d="M15.0232 11.7901C13.2504 11.7901 11.8121 13.2284 11.8121 15.0012C11.8121 16.7741 13.2504 18.2123 15.0232 18.2123C16.796 18.2123 18.2343 16.7741 18.2343 15.0012C18.2343 13.2284 16.796 11.7901 15.0232 11.7901ZM15.0232 17.0842C13.8731 17.0842 12.9402 16.1514 12.9402 15.0012C12.9402 13.8511 13.8731 12.9183 15.0232 12.9183C16.1733 12.9183 17.1061 13.8511 17.1061 15.0012C17.1061 16.1514 16.1733 17.0842 15.0232 17.0842Z" fill="#313137"/>
<path d="M19.111 11.6632C19.111 12.0772 18.7753 12.4128 18.3612 12.4128C17.9473 12.4128 17.6116 12.0772 17.6116 11.6632C17.6116 11.2491 17.9473 10.9135 18.3612 10.9135C18.7753 10.9135 19.111 11.2491 19.111 11.6632Z" fill="#313137"/>
</svg>
