<svg width="36" height="36" viewBox="0 0 36 36" fill="none" xmlns="http://www.w3.org/2000/svg">
<circle opacity="0.1" cx="18" cy="18" r="18" fill="white"/>
<path d="M25.4853 14.91C25.4502 14.113 25.3213 13.5651 25.1366 13.0903C24.9462 12.5863 24.6532 12.1351 24.2692 11.76C23.8941 11.3791 23.44 11.0831 22.9418 10.8956C22.4643 10.711 21.9192 10.5821 21.1222 10.5469C20.3192 10.5088 20.0643 10.5 18.0278 10.5C15.9913 10.5 15.7364 10.5088 14.9364 10.544C14.1394 10.5791 13.5914 10.7081 13.1168 10.8926C12.6127 11.0831 12.1614 11.3761 11.7864 11.76C11.4054 12.1351 11.1095 12.5893 10.9219 13.0874C10.7373 13.5651 10.6084 14.1101 10.5733 14.9071C10.5352 15.71 10.5263 15.9649 10.5263 18.0015C10.5263 20.038 10.5352 20.2929 10.5703 21.0929C10.6054 21.8899 10.7344 22.4378 10.9191 22.9126C11.1095 23.4166 11.4054 23.8678 11.7864 24.2429C12.1614 24.6239 12.6156 24.9199 13.1138 25.1073C13.5914 25.292 14.1364 25.4209 14.9335 25.456C15.7334 25.4913 15.9884 25.5 18.0249 25.5C20.0615 25.5 20.3164 25.4913 21.1164 25.456C21.9134 25.4209 22.4613 25.292 22.936 25.1073C23.9441 24.7176 24.7411 23.9206 25.1308 22.9126C25.3153 22.435 25.4443 21.8899 25.4795 21.0929C25.5146 20.2929 25.5234 20.038 25.5234 18.0015C25.5234 15.9649 25.5204 15.71 25.4853 14.91ZM24.1345 21.0343C24.1022 21.7668 23.9792 22.1624 23.8766 22.4262C23.6246 23.0796 23.106 23.5983 22.4525 23.8503C22.1888 23.9529 21.7903 24.0759 21.0606 24.1081C20.2694 24.1433 20.0322 24.152 18.0308 24.152C16.0294 24.152 15.7891 24.1433 15.0008 24.1081C14.2683 24.0759 13.8727 23.9529 13.609 23.8503C13.2838 23.7301 12.9878 23.5397 12.7475 23.2906C12.4984 23.0473 12.308 22.7543 12.1878 22.4291C12.0852 22.1654 11.9622 21.7668 11.93 21.0373C11.8948 20.2461 11.8861 20.0087 11.8861 18.0073C11.8861 16.0059 11.8948 15.7657 11.93 14.9775C11.9622 14.2449 12.0852 13.8493 12.1878 13.5856C12.308 13.2603 12.4984 12.9644 12.7505 12.724C12.9936 12.4749 13.2866 12.2845 13.6119 12.1644C13.8756 12.0619 14.2742 11.9388 15.0038 11.9065C15.795 11.8714 16.0324 11.8626 18.0336 11.8626C20.038 11.8626 20.2753 11.8714 21.0636 11.9065C21.7962 11.9388 22.1917 12.0619 22.4555 12.1644C22.7807 12.2845 23.0767 12.4749 23.3169 12.724C23.566 12.9673 23.7564 13.2603 23.8766 13.5856C23.9792 13.8493 24.1022 14.2478 24.1345 14.9775C24.1697 15.7686 24.1785 16.0059 24.1785 18.0073C24.1785 20.0087 24.1697 20.2431 24.1345 21.0343Z" fill="white"/>
<path d="M18.0278 14.1482C15.9005 14.1482 14.1745 15.8741 14.1745 18.0015C14.1745 20.1289 15.9005 21.8548 18.0278 21.8548C20.1552 21.8548 21.8811 20.1289 21.8811 18.0015C21.8811 15.8741 20.1552 14.1482 18.0278 14.1482ZM18.0278 20.501C16.6477 20.501 15.5283 19.3817 15.5283 18.0015C15.5283 16.6213 16.6477 15.5019 18.0278 15.5019C19.408 15.5019 20.5273 16.6213 20.5273 18.0015C20.5273 19.3817 19.408 20.501 18.0278 20.501Z" fill="white"/>
<path d="M22.9331 13.9958C22.9331 14.4926 22.5303 14.8954 22.0335 14.8954C21.5367 14.8954 21.1339 14.4926 21.1339 13.9958C21.1339 13.4989 21.5367 13.0963 22.0335 13.0963C22.5303 13.0963 22.9331 13.4989 22.9331 13.9958Z" fill="white"/>
</svg>
