<svg width="100" height="101" viewBox="0 0 100 101" fill="none" xmlns="http://www.w3.org/2000/svg">
<g filter="url(#filter0_d_1_120)">
<ellipse cx="50" cy="46.3884" rx="25" ry="25.3884" fill="white"/>
<path d="M74.5 46.3884C74.5 60.1412 63.5237 71.2769 50 71.2769C36.4763 71.2769 25.5 60.1412 25.5 46.3884C25.5 32.6356 36.4763 21.5 50 21.5C63.5237 21.5 74.5 32.6356 74.5 46.3884Z" stroke="#313137"/>
</g>
<path fill-rule="evenodd" clip-rule="evenodd" d="M45.6467 38.3322C45.5232 38.2541 45.3595 38.2421 45.2226 38.3021C45.0861 38.3622 45 38.4841 45 38.6172V54.1596C45 54.2927 45.0861 54.4146 45.2226 54.4746C45.2803 54.5001 45.3437 54.5128 45.4062 54.5128C45.4912 54.5128 45.5757 54.4898 45.6467 54.4446L57.8342 46.6734C57.9387 46.6067 58 46.5007 58 46.3884C58 46.2761 57.9387 46.1701 57.8342 46.1033L45.6467 38.3322Z" fill="#313137"/>
<defs>
<filter id="filter0_d_1_120" x="0" y="0" width="100" height="100.777" filterUnits="userSpaceOnUse" color-interpolation-filters="sRGB">
<feFlood flood-opacity="0" result="BackgroundImageFix"/>
<feColorMatrix in="SourceAlpha" type="matrix" values="0 0 0 0 0 0 0 0 0 0 0 0 0 0 0 0 0 0 127 0" result="hardAlpha"/>
<feOffset dy="4"/>
<feGaussianBlur stdDeviation="12.5"/>
<feComposite in2="hardAlpha" operator="out"/>
<feColorMatrix type="matrix" values="0 0 0 0 0.2 0 0 0 0 0.2 0 0 0 0 0.2 0 0 0 0.15 0"/>
<feBlend mode="normal" in2="BackgroundImageFix" result="effect1_dropShadow_1_120"/>
<feBlend mode="normal" in="SourceGraphic" in2="effect1_dropShadow_1_120" result="shape"/>
</filter>
</defs>
</svg>
