<svg width="24" height="24" viewBox="0 0 24 24" fill="none" xmlns="http://www.w3.org/2000/svg">
<path d="M12 0C5.37258 0 0 5.37258 0 12C0 18.6274 5.37258 24 12 24C18.6274 24 24 18.6274 24 12C23.9923 5.37578 18.6242 0.00771476 12 0Z" fill="#41BF06"/>
<path d="M19.4074 8.11482L12.3528 17.0667C12.1846 17.2754 11.9337 17.4122 11.6565 17.4462C11.3794 17.4803 11.0992 17.4088 10.879 17.2478L5.84135 13.4817C5.39681 13.149 5.32483 12.5424 5.68057 12.1267C6.03632 11.711 6.68508 11.6437 7.12962 11.9764L11.3304 15.119L17.7481 6.97475C17.9585 6.67946 18.3255 6.51621 18.7033 6.5498C19.0811 6.58339 19.4085 6.80839 19.5557 7.13547C19.7028 7.46256 19.6459 7.8388 19.4074 8.11482Z" fill="white"/>
</svg>
