<svg width="36" height="36" viewBox="0 0 36 36" fill="none" xmlns="http://www.w3.org/2000/svg">
<path opacity="0.1" d="M0 18C0 27.9411 8.05888 36 18 36C27.9411 36 36 27.9411 36 18C36 8.05888 27.9411 0 18 0C8.05888 0 0 8.05888 0 18Z" fill="white"/>
<path d="M9.11241 17.6718C13.9442 15.5667 17.1662 14.1788 18.7783 13.5083C23.3813 11.5938 24.3377 11.2612 24.9611 11.2501C25.0982 11.2478 25.4048 11.2818 25.6034 11.4429C25.7711 11.579 25.8172 11.7628 25.8393 11.8918C25.8614 12.0208 25.8889 12.3147 25.867 12.5443C25.6176 15.1651 24.5383 21.5252 23.9892 24.4606C23.7568 25.7026 23.2994 26.1191 22.8565 26.1598C21.8939 26.2484 21.163 25.5237 20.2308 24.9126C18.772 23.9564 17.9479 23.3611 16.5319 22.428C14.8955 21.3496 15.9563 20.7569 16.8889 19.7883C17.133 19.5348 21.3738 15.6774 21.4559 15.3275C21.4662 15.2837 21.4757 15.1206 21.3788 15.0344C21.2819 14.9483 21.1389 14.9777 21.0356 15.0012C20.8893 15.0344 18.5589 16.5747 14.0444 19.6221C13.3829 20.0764 12.7837 20.2977 12.2469 20.2861C11.6551 20.2733 10.5167 19.9515 9.67048 19.6764C8.63249 19.339 7.80752 19.1606 7.87936 18.5876C7.91678 18.2891 8.32779 17.9838 9.11241 17.6718Z" fill="white"/>
</svg>
