<svg width="57" height="67" viewBox="0 0 57 67" fill="none" xmlns="http://www.w3.org/2000/svg">
<path d="M1.01289 56.5171C0.524543 56.775 0.337773 57.38 0.595723 57.8684L4.7993 65.8264C5.05726 66.3147 5.66225 66.5015 6.15059 66.2435C6.63894 65.9856 6.8257 65.3806 6.56775 64.8922L2.83124 57.8185L9.90502 54.0819C10.3934 53.824 10.5801 53.219 10.3222 52.7307C10.0642 52.2423 9.45924 52.0555 8.97089 52.3135L1.01289 56.5171ZM50.4118 1.369C58.9297 22.824 53.7347 38.6914 43.0796 48.1426C32.3473 57.6624 15.9261 60.8144 1.77493 56.4458L1.18497 58.3568C15.9526 62.9158 33.1129 59.6568 44.4068 49.6388C55.778 39.5524 61.0543 22.7553 52.2706 0.631003L50.4118 1.369Z" fill="#565656"/>
</svg>
