<svg width="76" height="76" viewBox="0 0 76 76" fill="none" xmlns="http://www.w3.org/2000/svg">
<path d="M38 0C17.0132 0 0 17.0132 0 38C0 58.9868 17.0132 76 38 76C58.9868 76 76 58.9868 76 38C75.9756 17.0233 58.9767 0.0244301 38 0Z" fill="#41BF06"/>
<path d="M57.2609 26.4002L37.4581 53.1274C36.9859 53.7506 36.2816 54.1589 35.5037 54.2607C34.7257 54.3624 33.9393 54.149 33.3211 53.6683L19.18 42.4239C17.9321 41.4307 17.73 39.6195 18.7286 38.3784C19.7273 37.1373 21.5484 36.9363 22.7962 37.9295L34.5882 47.3124L52.6032 22.9963C53.1939 22.1147 54.224 21.6273 55.2845 21.7276C56.3449 21.8278 57.2642 22.4996 57.6773 23.4762C58.0903 24.4528 57.9304 25.5761 57.2609 26.4002Z" fill="white"/>
</svg>
