<svg width="30" height="30" viewBox="0 0 30 30" fill="none" xmlns="http://www.w3.org/2000/svg">
<path opacity="0.1" d="M0 15C0 23.2843 6.71573 30 15 30C23.2843 30 30 23.2843 30 15C30 6.71573 23.2843 0 15 0C6.71573 0 0 6.71573 0 15Z" fill="#313137"/>
<path fill-rule="evenodd" clip-rule="evenodd" d="M20.25 9.65625C18.8438 8.25 16.9687 7.5 15 7.5C10.875 7.5 7.5 10.875 7.5 15C7.5 16.3125 7.87501 17.625 8.53126 18.75L7.5 22.5L11.4375 21.4687C12.5625 22.0312 13.7813 22.4062 15 22.4062C19.125 22.4062 22.5 19.0312 22.5 14.9062C22.5 12.9375 21.6563 11.0625 20.25 9.65625ZM15 21.1875C13.875 21.1875 12.75 20.9063 11.8125 20.3438L11.625 20.25L9.28124 20.9062L9.93751 18.6562L9.74999 18.375C9.09374 17.3438 8.81249 16.2188 8.81249 15.0938C8.81249 11.7188 11.625 8.90625 15 8.90625C16.6875 8.90625 18.1875 9.5625 19.4063 10.6875C20.625 11.9062 21.1875 13.4063 21.1875 15.0938C21.1875 18.375 18.4688 21.1875 15 21.1875ZM18.375 16.5C18.1875 16.4063 17.25 15.9375 17.0625 15.9375C16.875 15.8437 16.7812 15.8438 16.6875 16.0313C16.5937 16.2188 16.2188 16.5937 16.125 16.7812C16.0313 16.875 15.9375 16.875 15.75 16.875C15.5625 16.7812 15 16.5937 14.25 15.9375C13.6875 15.4688 13.3125 14.8125 13.2188 14.625C13.125 14.4375 13.2188 14.3437 13.3125 14.25C13.4063 14.1562 13.5 14.0625 13.5938 13.9687C13.6875 13.875 13.6875 13.7813 13.7813 13.6875C13.875 13.5938 13.7813 13.5 13.7813 13.4063C13.7813 13.3125 13.4063 12.375 13.2188 12C13.125 11.7188 12.9375 11.7188 12.8438 11.7188C12.75 11.7188 12.6562 11.7188 12.4687 11.7188C12.375 11.7188 12.1875 11.7187 12 11.9062C11.8125 12.0937 11.3438 12.5625 11.3438 13.5C11.3438 14.4375 12 15.2812 12.0937 15.4688C12.1875 15.5625 13.4062 17.5312 15.2812 18.2812C16.875 18.9375 17.1563 18.75 17.5313 18.75C17.9063 18.75 18.6562 18.2813 18.75 17.9063C18.9375 17.4375 18.9375 17.0625 18.8438 17.0625C18.75 16.5938 18.5625 16.5938 18.375 16.5Z" fill="#313137"/>
</svg>
