<svg width="50" height="56" viewBox="0 0 50 56" fill="none" xmlns="http://www.w3.org/2000/svg">
<path d="M8.52765 19.7212L8.5181 16.8389C8.72818 16.8389 13.7512 16.7236 16.5396 11.3913L19.0798 12.7364C15.4701 19.6443 8.81413 19.7212 8.52765 19.7212Z" fill="#41BF06"/>
<path d="M19.0798 33.6236C13.3024 33.6236 8.59449 28.8966 8.59449 23.0743L8.57539 17.5787L11.4402 17.5691L11.4593 23.0743C11.4593 27.3113 14.878 30.7509 19.0798 30.7509C23.2815 30.7509 26.7002 27.3113 26.7002 23.0839H29.5651C29.5651 28.8966 24.8572 33.6236 19.0798 33.6236Z" fill="#41BF06"/>
<path d="M15.2791 31.0199H12.4143V36.7845H15.2791V31.0199Z" fill="#41BF06"/>
<path d="M30.5582 56H1.43242C0.639812 56 0 55.3563 0 54.5588V49.1401C0 39.7341 7.47721 33.9118 14.4006 33.9118V36.7941C8.72819 36.8037 2.86483 41.4154 2.86483 49.1497V53.1273H30.5582V56Z" fill="#41BF06"/>
<path d="M18.8888 44.8358C18.4209 44.8358 17.9816 44.6053 17.7142 44.221L12.2997 36.381L14.6488 34.7381L18.8315 40.8006L21.9637 35.8142V31.0295H24.8285V36.2369C24.8285 36.5059 24.7521 36.775 24.6089 37.0055L20.1016 44.1729C19.8437 44.5764 19.4045 44.8358 18.9174 44.8455C18.9079 44.8358 18.8983 44.8358 18.8888 44.8358Z" fill="#41BF06"/>
<path d="M35.6099 35.8238H27.6934V32.9415H34.187C34.2252 29.4538 34.3111 20.5475 34.3016 17.1944C34.292 12.7652 32.2962 8.65312 28.8298 5.91492C25.3633 3.17671 20.856 2.22555 16.4441 3.30161C9.5781 4.99257 4.77473 11.3049 4.77473 18.6836V35.8334H1.9099V18.6836C1.9099 9.97898 7.61091 2.50417 15.7661 0.515373C21.0279 -0.772063 26.4329 0.380865 30.5964 3.6571C34.76 6.94294 37.1569 11.8717 37.1664 17.1944C37.176 21.4026 37.0423 34.2769 37.0327 34.4018C37.0327 35.1897 36.3929 35.8238 35.6099 35.8238Z" fill="#41BF06"/>
<path d="M29.9184 21.0087C18.6119 19.6732 15.26 10.3537 15.1168 9.95977L17.8193 9.00861C17.9338 9.33527 20.7605 17.0311 30.2431 18.1456L29.9184 21.0087Z" fill="#41BF06"/>
<path d="M20.0538 43.5099H17.189V55.0392H20.0538V43.5099Z" fill="#41BF06"/>
<path d="M44.72 55.9231C44.4908 55.9231 44.2617 55.8655 44.0516 55.7598L39.6684 53.4347L35.2852 55.7598C34.8077 56.0192 34.2156 55.9712 33.7764 55.6541C33.3371 55.3275 33.1175 54.7894 33.2034 54.2418L34.0438 49.3226L30.4914 45.8446C30.0998 45.4603 29.9566 44.8935 30.1285 44.365C30.3004 43.8462 30.7492 43.4619 31.284 43.3851L36.1924 42.6645L38.3888 38.1969C38.6275 37.7069 39.1241 37.3898 39.6684 37.3898C40.2127 37.3898 40.7093 37.6973 40.948 38.1969L43.1444 42.6645L48.0528 43.3851C48.5876 43.4619 49.0364 43.8462 49.2083 44.365C49.3802 44.8839 49.2369 45.4603 48.8454 45.8446L45.293 49.3226L46.1333 54.2418C46.2288 54.7798 46.0092 55.3275 45.5604 55.6541C45.3121 55.8271 45.0161 55.9231 44.72 55.9231ZM39.6588 50.3699C39.888 50.3699 40.1172 50.4275 40.3273 50.5332L42.8101 51.8495L42.3327 49.0632C42.2563 48.5924 42.4091 48.1217 42.7433 47.7854L44.7582 45.8158L41.9793 45.4123C41.5114 45.345 41.1103 45.0472 40.9003 44.6245L39.6588 42.088L38.4174 44.6245C38.2073 45.0472 37.8062 45.345 37.3383 45.4123L34.5594 45.8158L36.5744 47.7854C36.9086 48.1121 37.0614 48.5924 36.985 49.0632L36.5075 51.8495L38.9904 50.5332C39.2005 50.4275 39.4296 50.3699 39.6588 50.3699Z" fill="#41BF06"/>
</svg>
