<svg width="56" height="56" viewBox="0 0 56 56" fill="none" xmlns="http://www.w3.org/2000/svg">
<path d="M20.23 32.6667H9.33329C6.76663 32.6667 4.66663 34.7667 4.66663 37.3334V51.3334H20.23V32.6667Z" stroke="#41BF06" stroke-width="2.5" stroke-miterlimit="10" stroke-linecap="round" stroke-linejoin="round"/>
<path d="M31.1033 23.3333H24.8733C22.3067 23.3333 20.2067 25.4333 20.2067 28V51.3333H35.77V28C35.77 25.4333 33.6933 23.3333 31.1033 23.3333Z" stroke="#41BF06" stroke-width="2.5" stroke-miterlimit="10" stroke-linecap="round" stroke-linejoin="round"/>
<path d="M46.6667 39.6667H35.77V51.3334H51.3334V44.3334C51.3334 41.7667 49.2334 39.6667 46.6667 39.6667Z" stroke="#41BF06" stroke-width="2.5" stroke-miterlimit="10" stroke-linecap="round" stroke-linejoin="round"/>
<path d="M29.2134 4.83001L30.45 7.30334C30.6134 7.65334 31.0567 7.98 31.4301 8.02667L33.67 8.40001C35.0934 8.63335 35.4434 9.6833 34.4167 10.6866L32.6667 12.4366C32.3634 12.74 32.2 13.3 32.2934 13.6967L32.7834 15.8434C33.18 17.5467 32.27 18.2 30.7767 17.3134L28.6767 16.0767C28.3034 15.8434 27.6734 15.8434 27.3 16.0767L25.2 17.3134C23.7067 18.2 22.7967 17.5467 23.1934 15.8434L23.6834 13.6967C23.7767 13.3 23.6134 12.7166 23.3101 12.4366L21.5834 10.71C20.5567 9.68332 20.8834 8.65663 22.33 8.4233L24.57 8.05003C24.9434 7.98003 25.3867 7.65337 25.55 7.3267L26.7867 4.8533C27.4634 3.49997 28.5367 3.50001 29.2134 4.83001Z" stroke="#41BF06" stroke-width="2.5" stroke-linecap="round" stroke-linejoin="round"/>
</svg>
