<svg width="56" height="56" viewBox="0 0 56 56" fill="none" xmlns="http://www.w3.org/2000/svg">
<path d="M45.0333 18.48V30.4967C45.0333 37.6834 40.9266 40.7633 34.7666 40.7633H14.2566C13.2066 40.7633 12.2033 40.6701 11.27 40.4601C10.6866 40.3667 10.1266 40.2034 9.61332 40.0167C6.11332 38.7101 3.98997 35.6767 3.98997 30.4967V18.48C3.98997 11.2933 8.09663 8.21338 14.2566 8.21338H34.7666C39.9933 8.21338 43.75 10.43 44.7533 15.4934C44.9166 16.4267 45.0333 17.3833 45.0333 18.48Z" stroke="#41BF06" stroke-width="2.5" stroke-miterlimit="10" stroke-linecap="round" stroke-linejoin="round"/>
<path d="M52.0359 25.4802V37.497C52.0359 44.6836 47.9292 47.7635 41.7692 47.7635H21.2592C19.5325 47.7635 17.9692 47.5303 16.6159 47.017C13.8392 45.9903 11.9492 43.867 11.2725 40.4603C12.2059 40.6703 13.2092 40.7635 14.2592 40.7635H34.7692C40.9292 40.7635 45.0359 37.6836 45.0359 30.497V18.4802C45.0359 17.3836 44.9425 16.4037 44.7559 15.4937C49.1892 16.427 52.0359 19.5536 52.0359 25.4802Z" stroke="#41BF06" stroke-width="2.5" stroke-miterlimit="10" stroke-linecap="round" stroke-linejoin="round"/>
<path d="M24.4964 30.6597C27.8984 30.6597 30.6564 27.9018 30.6564 24.4997C30.6564 21.0976 27.8984 18.3397 24.4964 18.3397C21.0943 18.3397 18.3363 21.0976 18.3363 24.4997C18.3363 27.9018 21.0943 30.6597 24.4964 30.6597Z" stroke="#41BF06" stroke-width="2.5" stroke-miterlimit="10" stroke-linecap="round" stroke-linejoin="round"/>
<path d="M11.1533 19.3666V29.6334" stroke="#41BF06" stroke-width="2.5" stroke-miterlimit="10" stroke-linecap="round" stroke-linejoin="round"/>
<path d="M37.8506 19.3674V29.6341" stroke="#41BF06" stroke-width="2.5" stroke-miterlimit="10" stroke-linecap="round" stroke-linejoin="round"/>
</svg>
