<svg width="56" height="56" viewBox="0 0 56 56" fill="none" xmlns="http://www.w3.org/2000/svg">
<path d="M23.3333 51.3334H32.6667C44.3333 51.3334 49 46.6667 49 35V21C49 9.33335 44.3333 4.66669 32.6667 4.66669H23.3333C11.6667 4.66669 7 9.33335 7 21V35C7 46.6667 11.6667 51.3334 23.3333 51.3334Z" stroke="#41BF06" stroke-width="2.5" stroke-linecap="round" stroke-linejoin="round"/>
<path d="M38.5 17.6866V20.02C38.5 21.9333 36.9367 23.52 35 23.52H21C19.0867 23.52 17.5 21.9566 17.5 20.02V17.6866C17.5 15.7733 19.0633 14.1866 21 14.1866H35C36.9367 14.1866 38.5 15.75 38.5 17.6866Z" stroke="#41BF06" stroke-width="2.5" stroke-linecap="round" stroke-linejoin="round"/>
<path d="M18.9843 32.6667H19.0112" stroke="#41BF06" stroke-width="2.5" stroke-linecap="round" stroke-linejoin="round"/>
<path d="M27.9889 32.6667H28.0158" stroke="#41BF06" stroke-width="2.5" stroke-linecap="round" stroke-linejoin="round"/>
<path d="M36.9934 32.6667H37.0204" stroke="#41BF06" stroke-width="2.5" stroke-linecap="round" stroke-linejoin="round"/>
<path d="M18.9843 40.8334H19.0112" stroke="#41BF06" stroke-width="2.5" stroke-linecap="round" stroke-linejoin="round"/>
<path d="M27.9889 40.8334H28.0158" stroke="#41BF06" stroke-width="2.5" stroke-linecap="round" stroke-linejoin="round"/>
<path d="M36.9934 40.8334H37.0204" stroke="#41BF06" stroke-width="2.5" stroke-linecap="round" stroke-linejoin="round"/>
</svg>
