<svg width="56" height="56" viewBox="0 0 56 56" fill="none" xmlns="http://www.w3.org/2000/svg">
<path d="M23.3333 39.55H14.49C6.62663 39.55 4.66663 37.59 4.66663 29.7267V15.7267C4.66663 7.86332 6.62663 5.90332 14.49 5.90332H39.06C46.9233 5.90332 48.8833 7.86332 48.8833 15.7267" stroke="#41BF06" stroke-width="2.5" stroke-linecap="round" stroke-linejoin="round"/>
<path d="M23.3334 50.0967V39.55" stroke="#41BF06" stroke-width="2.5" stroke-linecap="round" stroke-linejoin="round"/>
<path d="M4.66663 30.2167H23.3333" stroke="#41BF06" stroke-width="2.5" stroke-linecap="round" stroke-linejoin="round"/>
<path d="M15.7267 50.0967H23.3333" stroke="#41BF06" stroke-width="2.5" stroke-linecap="round" stroke-linejoin="round"/>
<path d="M51.3334 29.8667V43.19C51.3334 48.72 49.9567 50.0967 44.4267 50.0967H36.1434C30.6134 50.0967 29.2367 48.72 29.2367 43.19V29.8667C29.2367 24.3367 30.6134 22.96 36.1434 22.96H44.4267C49.9567 22.96 51.3334 24.3367 51.3334 29.8667Z" stroke="#41BF06" stroke-width="2.5" stroke-linecap="round" stroke-linejoin="round"/>
<path d="M40.2372 42.5834H40.2582" stroke="#41BF06" stroke-width="2.5" stroke-linecap="round" stroke-linejoin="round"/>
</svg>
